<svg xmlns="http://www.w3.org/2000/svg" xmlns:xlink="http://www.w3.org/1999/xlink" fill="none" version="1.1" width="451" height="54" viewBox="0 0 451 54"><defs><linearGradient x1="3.725292518907963e-9" y1="0.49999940395355225" x2="1.012145757675171" y2="0.49999961256980896" id="master_svg0_12_1638"><stop offset="0%" stop-color="#005AD9" stop-opacity="1"/><stop offset="100%" stop-color="#003C89" stop-opacity="0"/></linearGradient><linearGradient x1="126.09347239136696" y1="32.410428047180176" x2="126.09347239136696" y2="20.79752802848816" gradientUnits="userSpaceOnUse" id="master_svg1_12_1635"><stop offset="0%" stop-color="#D9ECFF" stop-opacity="1"/><stop offset="100%" stop-color="#F4FAFF" stop-opacity="1"/></linearGradient><filter id="master_svg2_716_11118" filterUnits="objectBoundingBox" color-interpolation-filters="sRGB" x="-12" y="-12" width="30" height="60"><feFlood flood-opacity="0" result="BackgroundImageFix"/><feColorMatrix in="SourceAlpha" type="matrix" values="0 0 0 0 0 0 0 0 0 0 0 0 0 0 0 0 0 0 127 0"/><feOffset dy="0" dx="0"/><feGaussianBlur stdDeviation="3"/><feColorMatrix type="matrix" values="0 0 0 0 0 0 0 0 0 0.5 0 0 0 0 1 0 0 0 1 0"/><feBlend mode="normal" in2="BackgroundImageFix" result="effect1_dropShadow"/><feBlend mode="normal" in="SourceGraphic" in2="effect1_dropShadow" result="shape"/></filter></defs><g><g><path d="M34,9C34,9,451,9,451,9C451,9,451,45,451,45C451,45,34,45,34,45C34,45,34,9,34,9C34,9,34,9,34,9Z" fill="url(#master_svg0_12_1638)" fill-opacity="0.800000011920929"/></g><g><path d="M66.20905078125,25.41390905380249L63.18505078125,24.35790905380249L59.87305078125,25.41390905380249L53.46505078125,25.41390905380249L53.77705078125,23.13390905380249L57.68905078125,23.13390905380249L58.74505078125,22.797909053802492L57.08905078125,22.22190905380249L53.44105078125,22.22190905380249L56.56105078125,17.34990905380249L56.03305078125,16.74990905380249L61.50505078125,16.74990905380249L60.92905078125,17.66190905380249L73.24105078125,17.66190905380249L72.73705078125,21.309909053802492L68.05705078125,22.797909053802492L69.01705078124999,23.13390905380249L72.92905078125,23.13390905380249L72.61705078125,25.41390905380249L66.20905078125,25.41390905380249ZM72.01705078124999,26.32590905380249L71.00905078125,33.62190905380249L52.76905078125,33.62190905380249L53.77705078125,26.32590905380249L72.01705078124999,26.32590905380249ZM66.76105078125,31.34190905380249L67.14505078125,28.605909053802492L58.02505078125,28.605909053802492L57.64105078125,31.34190905380249L66.76105078125,31.34190905380249ZM59.84905078125,19.94190905380249L63.59305078125,21.26190905380249L67.72105078125,19.94190905380249L59.84905078125,19.94190905380249ZM81.44905078125001,18.06990905380249L80.70505078125001,17.15790905380249L98.87305078125,17.15790905380249L98.08105078125,22.869909053802488L80.77705078125,22.869909053802488L81.44905078125001,18.06990905380249ZM97.55305078125,26.01390905380249L96.97705078125,30.02190905380249L90.71305078124999,30.02190905380249L90.30505078125,33.02190905380249Q90.23305078125,33.45390905380249,89.72905078125001,33.74190905380249Q89.22505078124999,34.02990905380249,88.52905078124999,34.02990905380249L84.71305078124999,34.02990905380249L86.03305078125,33.09390905380249L86.46505078125,30.02190905380249L80.20105078125,30.02190905380249L80.77705078125,26.01390905380249L97.55305078125,26.01390905380249ZM91.50505078124999,23.13390905380249L91.43305078125,23.565909053802493L98.99305078124999,23.565909053802493L98.70505078125001,25.55790905380249L79.43305078125,25.55790905380249L79.72105078125,23.565909053802493L87.13705078125,23.565909053802493L87.20905078125,23.13390905380249L91.50505078124999,23.13390905380249ZM95.29705078125,30.62190905380249L97.14505078125,33.83790905380249L93.25705078125,33.83790905380249L91.43305078125,30.62190905380249L95.29705078125,30.62190905380249ZM84.92905078125,30.62190905380249L82.26505078125,33.83790905380249L78.40105078125,33.83790905380249L81.06505078125,30.62190905380249L84.92905078125,30.62190905380249ZM92.72905078125001,28.29390905380249L92.84905078125,27.54990905380249L84.80905078125,27.54990905380249L84.68905078125,28.29390905380249L92.72905078125001,28.29390905380249ZM85.07305078125,19.17390905380249L94.62505078125,19.17390905380249L94.69705078125,18.64590905380249L85.14505078125,18.64590905380249L85.07305078125,19.17390905380249ZM94.33705078125,21.16590905380249L94.40905078125,20.68590905380249L84.85705078125,20.68590905380249L84.78505078124999,21.16590905380249L94.33705078125,21.16590905380249ZM104.63305078125,33.59790905380249L106.79305078125,18.21390905380249L105.83305078125,17.18190905380249L124.12105078125,17.18190905380249L123.80905078125,19.36590905380249L110.75305078125001,19.36590905380249L109.07305078125,31.38990905380249L122.84905078125,31.38990905380249L122.53705078125,33.59790905380249L104.63305078125,33.59790905380249ZM116.89705078125,22.605909053802492L119.03305078125,20.37390905380249L122.99305078125,20.37390905380249L118.67305078125,24.861909053802492L118.60105078125,24.88590905380249L122.20105078125,30.40590905380249L118.24105078125,30.40590905380249L116.41705078125,27.309909053802492L114.25705078125,30.40590905380249L110.27305078124999,30.40590905380249L114.61705078125,25.053909053802492L114.52105078125,25.00590905380249L111.64105078125,20.30190905380249L115.60105078125,20.30190905380249L116.89705078125,22.605909053802492ZM132.32905078125,18.95790905380249L131.58505078125,18.117909053802492L140.00905078124998,18.117909053802492L140.08105078124998,17.66190905380249L139.31305078125,16.74990905380249L144.78505078125,16.74990905380249L144.59305078124999,18.117909053802492L150.97705078125,18.117909053802492L150.64105078125,20.39790905380249L136.12105078125,20.39790905380249L133.21705078125,34.02990905380249L129.11305078125,34.02990905380249L132.32905078125,18.95790905380249ZM144.06505078125,31.34190905380249L146.41705078125,21.309909053802492L150.06505078125,21.309909053802492L147.71305078125,31.34190905380249L149.56105078125,31.34190905380249L149.24905078125,33.62190905380249L134.20105078125,33.62190905380249L134.51305078125,31.34190905380249L144.06505078125,31.34190905380249ZM136.02505078125,30.42990905380249L136.84105078125,21.309909053802492L140.27305078125,21.309909053802492L139.45705078125002,30.42990905380249L136.02505078125,30.42990905380249ZM140.36905078125,30.42990905380249L141.16105078125,21.309909053802492L144.59305078124999,21.309909053802492L143.77705078125,30.42990905380249L140.36905078125,30.42990905380249ZM171.44905078124998,23.42190905380249L171.56905078124998,22.58190905380249L158.17705078125,22.58190905380249L158.41705078125,20.78190905380249L169.09705078125,20.78190905380249L170.12905078125,19.67790905380249L163.60105078125,19.67790905380249L163.07305078125,20.32590905380249L158.72905078125,20.32590905380249L161.17705078125,17.58990905380249L160.64905078125,16.797909053802492L165.92905078125,16.797909053802492L165.06505078125,17.85390905380249L174.80905078125,17.85390905380249L174.54505078124998,19.797909053802492L173.63305078125,20.78190905380249L176.05705078124998,20.78190905380249L175.04905078125,27.90990905380249L157.40905078125002,27.90990905380249L157.67305078125,26.01390905380249L171.06505078125,26.01390905380249L171.16105078125,25.245909053802492L158.22505078125,25.245909053802492L158.48905078125,23.42190905380249L171.44905078124998,23.42190905380249ZM160.12105078125,33.66990905380249L160.84105078125,28.55790905380249L164.94505078125002,28.55790905380249L164.53705078125,31.41390905380249L169.91305078125,31.41390905380249L170.77705078125,30.64590905380249L170.36905078125,33.66990905380249L160.12105078125,33.66990905380249ZM171.56905078124998,28.82190905380249L175.28905078125,28.82190905380249L175.33705078125,33.573909053802495L171.61705078125,33.573909053802495L171.56905078124998,28.82190905380249ZM159.08905078125,33.573909053802495L155.39305078125,33.573909053802495L156.85705078125,28.91790905380249L160.55305078125,28.91790905380249L159.08905078125,33.573909053802495ZM166.07305078125,28.38990905380249L169.79305078125,28.38990905380249L169.76905078125,30.93390905380249L166.04905078125,30.93390905380249L166.07305078125,28.38990905380249ZM181.81705078125,31.41390905380249L182.56105078125,26.13390905380249L200.65705078125,26.13390905380249L199.91305078125,31.41390905380249L200.87305078125,31.41390905380249L200.58505078125,33.573909053802495L180.56905078125,33.573909053802495L180.85705078125,31.41390905380249L181.81705078125,31.41390905380249ZM197.72905078125,16.797909053802492L197.20105078125,18.54990905380249L202.26505078125,18.54990905380249L201.83305078125,21.52590905380249L196.33705078125,21.52590905380249L195.32905078125,24.933909053802488L191.44105078125,24.933909053802488L193.64905078125,16.797909053802492L197.72905078125,16.797909053802492ZM187.84105078125,17.44590905380249L187.26505078125,16.72590905380249L191.77705078125,16.72590905380249L190.55305078125,25.41390905380249L186.71305078125,25.41390905380249L187.84105078125,17.44590905380249ZM183.76105078125,18.35790905380249L183.18505078125,17.66190905380249L187.14505078125,17.66190905380249L186.11305078125,24.933909053802488L182.82505078125,24.933909053802488L183.76105078125,18.35790905380249ZM200.46505078125,22.48590905380249L200.94505078125,24.933909053802488L197.12905078125,24.933909053802488L196.64905078125,22.48590905380249L200.46505078125,22.48590905380249ZM185.89705078125,31.41390905380249L187.00105078125,31.41390905380249L187.43305078125,28.437909053802493L186.32905078125,28.437909053802493L185.89705078125,31.41390905380249ZM190.43305078125,31.41390905380249L191.53705078125,31.41390905380249L191.96905078125,28.437909053802493L190.86505078125,28.437909053802493L190.43305078125,31.41390905380249ZM195.40105078125,28.437909053802493L194.96905078125,31.41390905380249L196.07305078125,31.41390905380249L196.50505078125,28.437909053802493L195.40105078125,28.437909053802493ZM209.32105078125,19.84590905380249L209.65705078125,17.49390905380249L209.05705078125,16.797909053802492L213.78505078125,16.797909053802492L213.35305078125,19.84590905380249L214.19305078125,19.84590905380249L213.88105078125,21.98190905380249L213.04105078125,21.98190905380249L212.68105078125,24.57390905380249L213.32905078125,24.381909053802488L212.96905078125,26.87790905380249L212.34505078125,27.06990905380249L211.60105078125,32.421909053802494Q211.50505078125,33.11790905380249,210.96505078125,33.561909053802495Q210.42505078125,34.00590905380249,209.75305078125,34.00590905380249L206.03305078125,34.00590905380249L207.64105078125,31.84590905380249L208.12105078125,28.41390905380249L206.77705078125,28.82190905380249L207.13705078125,26.30190905380249L208.48105078125,25.89390905380249L209.03305078125,21.98190905380249L207.76105078125,21.98190905380249L208.07305078125,19.84590905380249L209.32105078125,19.84590905380249ZM217.60105078125,31.36590905380249L218.05705078125,28.053909053802492L214.40905078125,28.053909053802492L214.72105078125,25.89390905380249L226.57705078125,25.89390905380249L226.26505078125,28.053909053802492L222.54505078125,28.053909053802492L222.08905078125,31.36590905380249L226.40905078125,31.36590905380249L226.09705078125,33.59790905380249L213.23305078125,33.59790905380249L213.54505078125,31.36590905380249L217.60105078125,31.36590905380249ZM224.10505078125,20.22990905380249L218.75305078125,20.22990905380249L218.51305078125,21.90990905380249L214.57705078125,21.90990905380249L215.08105078125,18.45390905380249L219.32905078125,18.45390905380249L219.44905078125,17.68590905380249L218.53705078125,16.77390905380249L224.10505078125,16.77390905380249L223.86505078125,18.45390905380249L228.18505078125,18.45390905380249L227.68105078125,21.90990905380249L223.86505078125,21.90990905380249L224.10505078125,20.22990905380249ZM214.26505078125,25.437909053802493L216.20905078125,22.41390905380249L220.33705078125,22.41390905380249L218.39305078125,25.437909053802493L214.26505078125,25.437909053802493ZM223.07305078125,25.437909053802493L221.94505078125,22.41390905380249L226.07305078125,22.41390905380249L227.20105078125,25.437909053802493L223.07305078125,25.437909053802493Z" fill="url(#master_svg1_12_1635)" fill-opacity="1"/></g><g filter="url(#master_svg2_716_11118)"><rect x="9" y="9" width="6" height="36" rx="0" fill="#0DCFFF" fill-opacity="1"/></g><g><rect x="21" y="15" width="6" height="25" rx="0" fill="#FFD542" fill-opacity="1"/></g></g></svg>