<svg xmlns="http://www.w3.org/2000/svg" xmlns:xlink="http://www.w3.org/1999/xlink" fill="none" version="1.1" width="451" height="54" viewBox="0 0 451 54"><defs><linearGradient x1="3.725292518907963e-9" y1="0.49999940395355225" x2="1.012145757675171" y2="0.49999961256980896" id="master_svg0_12_1638"><stop offset="0%" stop-color="#005AD9" stop-opacity="1"/><stop offset="100%" stop-color="#003C89" stop-opacity="0"/></linearGradient><linearGradient x1="699.6222842633724" y1="33.717517375946045" x2="699.6222842633724" y2="22.10461735725403" gradientUnits="userSpaceOnUse" id="master_svg1_1061_14196"><stop offset="0%" stop-color="#D9ECFF" stop-opacity="1"/><stop offset="100%" stop-color="#F4FAFF" stop-opacity="1"/></linearGradient><filter id="master_svg2_689_06593" filterUnits="objectBoundingBox" color-interpolation-filters="sRGB" x="-12" y="-12" width="30" height="60"><feFlood flood-opacity="0" result="BackgroundImageFix"/><feColorMatrix in="SourceAlpha" type="matrix" values="0 0 0 0 0 0 0 0 0 0 0 0 0 0 0 0 0 0 127 0"/><feOffset dy="0" dx="0"/><feGaussianBlur stdDeviation="3"/><feColorMatrix type="matrix" values="0 0 0 0 0 0 0 0 0 0.5 0 0 0 0 1 0 0 0 1 0"/><feBlend mode="normal" in2="BackgroundImageFix" result="effect1_dropShadow"/><feBlend mode="normal" in="SourceGraphic" in2="effect1_dropShadow" result="shape"/></filter></defs><g><g transform="matrix(-1,0,0,1,884,0)"><g><path d="M467,9C467,9,884,9,884,9C884,9,884,45,884,45C884,45,467,45,467,45C467,45,467,9,467,9C467,9,467,9,467,9Z" fill="url(#master_svg0_12_1638)" fill-opacity="0.800000011920929"/></g><g transform="matrix(-1,0,0,1,1272.7860412597656,0)"><path d="M642.5770106298828,33.536998382568356L643.5610106298828,26.624998382568357L642.5050106298828,26.624998382568357L640.3450106298828,35.28899838256836L637.2970096298828,35.28899838256836L640.5370106298828,22.44899838256836L639.0490106298828,22.44899838256836L639.3610106298828,20.264998382568358L641.9530106298828,20.264998382568358L642.1450106298828,18.99299838256836L641.2570106298828,18.08099838256836L645.8170106298828,18.08099838256836L645.5050106298828,20.264998382568358L647.5930206298829,20.264998382568358L647.2810206298828,22.44899838256836L643.5610106298828,22.44899838256836L643.0570106298828,24.392998382568358L646.9690206298828,24.392998382568358L645.6490106298828,33.70499838256836Q645.5530106298828,34.40099838256836,644.9530106298828,34.84499838256836Q644.3530106298828,35.28899838256836,643.5850106298828,35.28899838256836L641.1370106298829,35.28899838256836L642.5770106298828,33.536998382568356ZM657.0250206298828,28.78499838256836L655.5850206298828,29.264998382568358L657.2410206298828,35.33699838256836L653.5690206298829,35.33699838256836L651.1930206298828,26.55299838256836L650.3290206298828,32.768998382568356L651.9130206298828,32.48099838256836L651.6250206298828,34.56899838256836L646.7530206298828,35.33699838256836L648.4330206298828,23.40899838256836L657.8890206298828,22.56899838256836L657.6010206298828,24.63299838256836L654.3850206298828,24.92099838256836L654.9850206298828,27.08099838256836L657.3850206298828,26.28899838256836L657.0250206298828,28.78499838256836ZM653.1610206298828,18.08099838256836L652.5130206298828,19.47299838256836L658.5850206298828,19.47299838256836L658.2730206298828,21.72899838256836L651.4570206298828,21.72899838256836L651.1450206298828,22.40099838256836L647.7370206298829,22.40099838256836L649.6570206298828,18.08099838256836L653.1610206298828,18.08099838256836ZM671.7850206298829,34.44899838256836L672.8890206298828,26.48099838256836L672.2410206298828,26.48099838256836L670.3690206298828,35.31299838256836L667.2730206298828,35.31299838256836L670.1050206298828,22.16099838256836L669.0970206298828,22.16099838256836L669.3850206298828,19.97699838256836L671.2090206298828,19.97699838256836L671.3770206298828,18.944998382568357L670.7050206298828,18.10499838256836L674.8090206298828,18.10499838256836L674.5450206298829,19.97699838256836L676.6810206298828,19.97699838256836L676.3930206298828,22.16099838256836L673.1530206298828,22.16099838256836L672.7210206298828,24.24899838256836L676.2010206298828,24.24899838256836L674.8810206298829,33.68099838256836Q674.7850206298829,34.37699838256836,674.3290206298828,34.84499838256836Q673.8730206298828,35.31299838256836,673.2010206298828,35.31299838256836L670.8730206298828,35.31299838256836L671.7850206298829,34.44899838256836ZM683.4730206298829,29.69699838256836L681.3610206298828,29.76899838256836L680.8570206298828,33.77699838256836Q680.7610206298829,34.42499838256836,680.2810206298828,34.868998382568364Q679.8010206298828,35.31299838256836,679.1530206298828,35.31299838256836L675.4090206298828,35.31299838256836L677.8810206298829,33.152998382568356L678.2890206298828,29.88899838256836L676.0090206298828,29.96099838256836L676.2970206298828,27.89699838256836L678.5530206298828,27.82499838256836L678.6970206298828,26.79299838256836L680.2090206298828,25.136998382568358L676.9690206298828,25.136998382568358L677.2570206298828,23.19299838256836L683.5690206298829,23.19299838256836L683.2330206298828,25.56899838256836L681.6970206298828,27.12899838256836L681.6250206298828,27.70499838256836L683.7610206298829,27.63299838256836L683.4730206298829,29.69699838256836ZM676.6090206298828,22.73699838256836L678.3610206298828,18.10499838256836L681.7690206298828,18.10499838256836L681.1450206298828,19.76099838256836L684.5530206298828,19.76099838256836L684.2650206298828,21.776998382568358L680.4010206298829,21.776998382568358L680.0650206298828,22.73699838256836L676.6090206298828,22.73699838256836ZM662.6890206298829,35.31299838256836L664.6570206298828,28.54499838256836L667.7770206298828,28.54499838256836L665.8090206298829,35.31299838256836L662.6890206298829,35.31299838256836ZM664.8010206298828,27.63299838256836L664.6810206298828,23.52899838256836L667.8010206298828,23.52899838256836L667.9210206298828,27.63299838256836L664.8010206298828,27.63299838256836ZM665.4970206298829,22.61699838256836L665.3770206298828,18.51299838256836L668.4970206298829,18.51299838256836L668.6170206298829,22.61699838256836L665.4970206298829,22.61699838256836ZM689.1370206298828,34.92899838256836L690.3850206298828,32.55299838256836L691.5130206298828,24.44099838256836L690.6010206298828,24.44099838256836L690.9370206298828,22.16099838256836L695.9530206298828,22.16099838256836L694.6090206298828,31.66499838256836L697.8970206298828,32.64899838256836L709.0570206298828,32.64899838256836L708.7450206298828,34.92899838256836L695.9770206298829,34.92899838256836L693.6010206298828,34.232998382568354L693.2410206298828,34.92899838256836L689.1370206298828,34.92899838256836ZM707.6170206298829,26.72099838256836L708.2890206298828,31.73699838256836L704.6410206298829,31.73699838256836L704.5450206298829,31.11299838256836L696.0010206298828,31.520998382568358L696.2890206298828,29.456998382568358L698.4970206298829,25.35299838256836L696.4090206298828,25.35299838256836L696.7210206298828,23.072998382568358L709.4890206298828,23.072998382568358L709.1770206298828,25.35299838256836L703.0570206298828,25.35299838256836L700.9690206298828,29.240998382568357L704.2810206298828,29.09699838256836L703.9690206298828,26.72099838256836L707.6170206298829,26.72099838256836ZM709.2250206298828,18.53699838256836L708.9130206298828,20.79299838256836L697.9690206298828,20.79299838256836L698.2810206298828,18.53699838256836L709.2250206298828,18.53699838256836ZM695.0890206298828,18.51299838256836L696.0730206298828,21.24899838256836L692.4250206298829,21.24899838256836L691.4410206298828,18.51299838256836L695.0890206298828,18.51299838256836ZM727.2010206298828,23.072998382568358L725.9050206298828,23.072998382568358L726.2410206298828,20.79299838256836L727.7770206298828,20.79299838256836L728.2570206298828,18.87299838256836L727.5370206298828,18.05699838256836L732.0970206298828,18.05699838256836L731.4250206298829,20.79299838256836L735.8170206298828,20.79299838256836L733.9930206298828,33.752998382568364Q733.8730206298828,34.44899838256836,733.3450206298828,34.89299838256836Q732.8170206298828,35.33699838256836,732.1210206298828,35.33699838256836L728.3050206298828,35.33699838256836L730.4170206298828,33.128998382568355L731.8330206298829,23.072998382568358L730.8490206298828,23.072998382568358L727.8250206298828,35.33699838256836L724.1770206298828,35.33699838256836L727.2010206298828,23.072998382568358ZM723.6490206298828,29.456998382568358L723.5050206298828,35.33699838256836L719.8570206298828,35.33699838256836L719.8570206298828,34.68899838256836L714.1450206298828,35.33699838256836L714.4810206298828,33.10499838256836L716.7850206298829,25.80899838256836L715.4890206298828,25.80899838256836L715.8250206298828,23.52899838256836L724.9450206298828,23.52899838256836L724.6090206298828,25.80899838256836L720.4330206298828,25.80899838256836L718.2490206298828,32.64899838256836L719.9290206298829,32.45699838256836L720.0010206298828,29.456998382568358L723.6490206298828,29.456998382568358ZM725.1130206298828,18.96899838256836L724.8010206298828,21.24899838256836L716.5930206298829,21.24899838256836L716.9050206298828,18.96899838256836L725.1130206298828,18.96899838256836ZM760.5610206298828,26.264998382568358L759.3610206298828,34.92899838256836L747.5770206298828,34.92899838256836L748.7770206298828,26.264998382568358L760.5610206298828,26.264998382568358ZM743.5450206298829,20.86499838256836L743.8570206298828,18.75299838256836L743.2810206298828,18.05699838256836L747.9610206298828,18.05699838256836L747.5530206298828,20.86499838256836L748.8250206298828,20.86499838256836L748.5130206298828,23.14499838256836L747.2410206298828,23.14499838256836L746.8330206298829,26.04899838256836L748.1530206298828,25.712998382568358L747.7930206298828,28.23299838256836L746.4970206298829,28.56899838256836L745.7770206298828,33.68099838256836Q745.6810206298828,34.37699838256836,745.1650206298829,34.82099838256836Q744.6490206298828,35.26499838256836,743.9530206298828,35.26499838256836L739.9930206298828,35.26499838256836L741.8410206298828,33.10499838256836L742.3210206298828,29.57699838256836L740.7610206298828,29.96099838256836L741.0970206298828,27.46499838256836L742.6810206298828,27.08099838256836L743.2330206298828,23.14499838256836L741.7210206298828,23.14499838256836L742.0330206298828,20.86499838256836L743.5450206298829,20.86499838256836ZM761.0410206298828,20.91299838256836L753.6010206298828,21.752998382568357L753.4090206298828,23.14499838256836L760.2250206298828,23.14499838256836L761.2570206298828,22.23299838256836L760.8250206298828,25.37699838256836L748.9690206298828,25.37699838256836L749.8810206298829,18.82499838256836L749.0650206298828,18.10499838256836L754.1050206298828,18.10499838256836L753.9370206298828,19.328998382568358L761.3530206298828,18.584998382568358L761.0410206298828,20.91299838256836ZM756.3610206298828,29.67299838256836L756.5530206298828,28.40099838256836L752.3530206298828,28.40099838256836L752.1610206298828,29.67299838256836L756.3610206298828,29.67299838256836ZM755.8570206298828,32.81699838256836L756.0250206298829,31.616998382568358L751.9690206298828,31.616998382568358L751.8010206298828,32.81699838256836L755.8570206298828,32.81699838256836ZM780.8650206298828,32.64899838256836L779.0170206298828,35.33699838256836L771.2650206298829,35.33699838256836L770.6650206298827,34.78499838256836L769.8970206298828,35.33699838256836L765.3370206298828,35.33699838256836L768.6250206298828,32.93699838256836L766.8250206298828,31.28099838256836L767.1370206298828,29.000998382568362L766.2490206298828,29.000998382568362L766.5610206298828,26.72099838256836L767.4490206298829,26.72099838256836L767.5690206298827,25.95299838256836L770.7610206298828,25.95299838256836L770.6410206298829,26.72099838256836L772.9210206298828,26.72099838256836L773.0410206298828,25.95299838256836L776.2330206298828,25.95299838256836L776.1130206298828,26.72099838256836L777.0490206298828,26.72099838256836L776.7370206298829,29.000998382568362L775.8010206298828,29.000998382568362L775.4890206298828,31.28099838256836L773.2090206298828,32.93699838256836L775.5370206298828,35.09699838256836L779.3290206298828,29.57699838256836L777.2410206298828,25.35299838256836L780.8890206298828,25.35299838256836L781.4650206298828,26.50499838256836L782.2570206298828,25.35299838256836L782.2570206298828,25.328998382568358L782.6890206298829,22.16099838256836L781.8250206298828,22.16099838256836L781.0090206298828,24.44099838256836L777.3610206298828,24.44099838256836L779.4250206298829,18.60899838256836L778.9690206298828,18.05699838256836L783.2890206298828,18.05699838256836L782.6410206298829,19.880998382568357L787.3450206298828,19.880998382568357L787.0330206298828,22.16099838256836L786.3370206298828,22.16099838256836L785.9050206298828,25.328998382568358L782.9770206298829,29.57699838256836L785.8570206298828,35.33699838256836L782.2090206298828,35.33699838256836L780.8650206298828,32.64899838256836ZM768.4330206298828,23.072998382568358L767.0650206298828,23.072998382568358L767.4010206298829,20.79299838256836L771.0490206298828,20.79299838256836L771.3130206298828,18.944998382568357L770.9050206298828,18.05699838256836L774.6250206298828,18.05699838256836L774.2410206298828,20.79299838256836L777.8890206298828,20.79299838256836L777.5530206298828,23.072998382568358L776.0650206298828,23.072998382568358L777.1690206298829,25.80899838256836L774.4330206298828,25.80899838256836L773.7610206298828,24.15299838256836L773.5210206298827,25.80899838256836L770.3290206298828,25.80899838256836L770.5930206298829,23.98499838256836L769.4170206298828,25.80899838256836L766.6810206298828,25.80899838256836L768.4330206298828,23.072998382568358ZM775.4650206298828,18.51299838256836L778.2010206298828,18.51299838256836L777.4810206298828,20.33699838256836L774.7450206298828,20.33699838256836L775.4650206298828,18.51299838256836ZM770.6410206298829,20.33699838256836L767.9050206298828,20.33699838256836L767.7130206298827,18.51299838256836L770.4490206298829,18.51299838256836L770.6410206298829,20.33699838256836ZM772.4650206298828,30.15299838256836L772.6090206298828,29.000998382568362L770.3290206298828,29.000998382568362L770.1850206298828,30.15299838256836L771.1930206298828,31.08899838256836L772.4650206298828,30.15299838256836Z" fill="url(#master_svg1_1061_14196)" fill-opacity="1"/></g><g filter="url(#master_svg2_689_06593)"><rect x="442" y="9" width="6" height="36" rx="0" fill="#0DCFFF" fill-opacity="1"/></g><g><rect x="454" y="15" width="6" height="24" rx="0" fill="#FFD542" fill-opacity="1"/></g></g></g></svg>